<svg width="32" height="32" viewBox="0 0 32 32" fill="none" xmlns="http://www.w3.org/2000/svg">
<path d="M22.6859 9.29312C22.5453 9.16179 22.3683 9.0696 22.1747 9.02686C21.9812 8.98412 21.7787 8.99252 21.5899 9.05113L11.9474 12.051C11.7895 12.1002 11.646 12.1829 11.5283 12.2928C11.4105 12.4027 11.3219 12.5366 11.2692 12.684L8.05503 21.6837C7.99207 21.8599 7.98294 22.0489 8.02864 22.2297C8.07435 22.4105 8.17309 22.5758 8.3138 22.7071C8.45451 22.8384 8.63163 22.9306 8.82531 22.9733C9.01899 23.0159 9.22156 23.0074 9.41034 22.9486L19.0529 19.9487C19.2108 19.8996 19.3543 19.8168 19.472 19.707C19.5897 19.5971 19.6784 19.4632 19.731 19.3158L22.9452 10.3161C23.008 10.1399 23.017 9.95091 22.9712 9.77024C22.9254 9.58956 22.8267 9.42436 22.6859 9.29312ZM10.7656 20.4197L13.1334 13.792L17.8679 18.2108L10.7656 20.4197Z" fill="#DDDEDD"/>
<path d="M5.71429 11.4286C4.58411 11.4286 3.47931 11.0934 2.5396 10.4655C1.59989 9.83765 0.867477 8.9452 0.434977 7.90105C0.00247591 6.8569 -0.110686 5.70795 0.109801 4.59949C0.330288 3.49102 0.874521 2.47284 1.67368 1.67368C2.47283 0.874521 3.49102 0.330288 4.59949 0.109801C5.70795 -0.110686 6.8569 0.00247591 7.90105 0.434977C8.9452 0.867477 9.83765 1.59989 10.4655 2.5396C11.0934 3.47931 11.4286 4.58411 11.4286 5.71429H9.14286C9.14286 5.03618 8.94178 4.3733 8.56504 3.80948C8.1883 3.24565 7.65283 2.8062 7.02634 2.5467C6.39986 2.2872 5.71048 2.2193 5.04541 2.3516C4.38033 2.48389 3.76942 2.81043 3.28992 3.28992C2.81043 3.76942 2.48389 4.38033 2.3516 5.04541C2.2193 5.71048 2.2872 6.39986 2.5467 7.02635C2.8062 7.65283 3.24565 8.1883 3.80948 8.56504C4.3733 8.94178 5.03618 9.14286 5.71429 9.14286V11.4286ZM26.2857 11.4286V9.14286C26.9638 9.14286 27.6267 8.94178 28.1905 8.56504C28.7543 8.1883 29.1938 7.65283 29.4533 7.02635C29.7128 6.39986 29.7807 5.71048 29.6484 5.04541C29.5161 4.38033 29.1896 3.76942 28.7101 3.28992C28.2306 2.81043 27.6197 2.48389 26.9546 2.3516C26.2895 2.2193 25.6001 2.2872 24.9737 2.5467C24.3472 2.8062 23.8117 3.24565 23.435 3.80948C23.0582 4.3733 22.8571 5.03618 22.8571 5.71429H20.5714C20.5714 4.58411 20.9066 3.47931 21.5345 2.5396C22.1624 1.59989 23.0548 0.867477 24.0989 0.434977C25.1431 0.00247591 26.2921 -0.110686 27.4005 0.109801C28.509 0.330288 29.5272 0.874521 30.3263 1.67368C31.1255 2.47284 31.6697 3.49102 31.8902 4.59949C32.1107 5.70795 31.9975 6.8569 31.565 7.90105C31.1325 8.9452 30.4001 9.83765 29.4604 10.4655C28.5207 11.0934 27.4159 11.4286 26.2857 11.4286ZM5.71429 32C4.19876 32 2.74531 31.398 1.67368 30.3263C0.602042 29.2547 2.54389e-06 27.8012 2.54389e-06 26.2857C2.54389e-06 24.7702 0.602042 23.3167 1.67368 22.2451C2.74531 21.1735 4.19876 20.5714 5.71429 20.5714V22.8571C5.03618 22.8571 4.3733 23.0582 3.80948 23.435C3.24565 23.8117 2.8062 24.3472 2.5467 24.9737C2.2872 25.6001 2.2193 26.2895 2.3516 26.9546C2.48389 27.6197 2.81043 28.2306 3.28992 28.7101C3.76942 29.1896 4.38033 29.5161 5.04541 29.6484C5.71048 29.7807 6.39986 29.7128 7.02634 29.4533C7.65283 29.1938 8.1883 28.7544 8.56504 28.1905C8.94178 27.6267 9.14286 26.9638 9.14286 26.2857H11.4286C11.4271 27.8008 10.8245 29.2533 9.75323 30.3247C8.68192 31.396 7.22935 31.9985 5.71429 32V32ZM26.2857 32C24.7707 31.9985 23.3181 31.396 22.2468 30.3247C21.1755 29.2533 20.5729 27.8008 20.5714 26.2857H22.8571C22.8571 26.9638 23.0582 27.6267 23.435 28.1905C23.8117 28.7544 24.3472 29.1938 24.9737 29.4533C25.6001 29.7128 26.2895 29.7807 26.9546 29.6484C27.6197 29.5161 28.2306 29.1896 28.7101 28.7101C29.1896 28.2306 29.5161 27.6197 29.6484 26.9546C29.7807 26.2895 29.7128 25.6001 29.4533 24.9737C29.1938 24.3472 28.7543 23.8117 28.1905 23.435C27.6267 23.0582 26.9638 22.8571 26.2857 22.8571V20.5714C27.8012 20.5714 29.2547 21.1735 30.3263 22.2451C31.398 23.3167 32 24.7702 32 26.2857C32 27.8012 31.398 29.2547 30.3263 30.3263C29.2547 31.398 27.8012 32 26.2857 32Z" fill="#DDDEDD"/>
</svg>
